Coordinates
version=1
nRows=13
nColumns=63
inDegrees=yes

Units are S.I. units (second, meters, Newtons, ...)
If the header above contains a line with 'inDegrees', this indicates whether rotational values are in degrees (yes) or radians (no).

endheader
time	pelvis_tilt	pelvis_list	pelvis_rotation	pelvis_tx	pelvis_ty	pelvis_tz	hip_flexion_r	hip_adduction_r	hip_rotation_r	knee_angle_r	knee_angle_r_beta	ankle_angle_r	subtalar_angle_r	mtp_angle_r	hip_flexion_l	hip_adduction_l	hip_rotation_l	knee_angle_l	knee_angle_l_beta	ankle_angle_l	subtalar_angle_l	mtp_angle_l	L5_S1_Flex_Ext	L5_S1_Lat_Bending	L5_S1_axial_rotation	L4_L5_Flex_Ext	L4_L5_Lat_Bending	L4_L5_axial_rotation	L3_L4_Flex_Ext	L3_L4_Lat_Bending	L3_L4_axial_rotation	L2_L3_Flex_Ext	L2_L3_Lat_Bending	L2_L3_axial_rotation	L1_L2_Flex_Ext	L1_L2_Lat_Bending	L1_L2_axial_rotation	L1_T12_Flex_Ext	L1_T12_Lat_Bending	L1_T12_axial_rotation	Abs_r3	Abs_r2	Abs_r1	Abs_t1	Abs_t2	neck_flexion	neck_bending	neck_rotation	arm_flex_r	arm_add_r	arm_rot_r	elbow_flex_r	pro_sup_r	wrist_flex_r	wrist_dev_r	arm_flex_l	arm_add_l	arm_rot_l	elbow_flex_l	pro_sup_l	wrist_flex_l	wrist_dev_l
1.372881	-3.825172	-3.385717	101.067290	0.073233	0.452709	0.847291	3.006888	0.366364	-13.750353	4.405569	0.076892	27.910413	15.815871	0.000000	8.646175	0.513489	-1.524096	12.773733	0.222944	27.509680	6.997851	0.000000	0.022128	-0.103191	-0.453486	0.041094	-0.137244	-0.481829	0.036354	-0.250898	-0.481829	0.025290	-0.250898	-0.396800	0.020548	-0.210426	-0.368457	0.012644	-0.159842	-0.340115	0.158057	-1.167313	-2.522153	0.000000	0.000000	19.647768	-5.955458	10.822563	8.926721	-11.653168	45.895403	63.823420	82.455054	13.166858	23.604883	14.442326	-6.413429	57.389994	47.688194	71.165122	11.528679	13.516757
1.389831	-3.864976	-3.367886	100.830690	0.073465	0.452816	0.847292	3.035578	0.327248	-13.456935	4.416683	0.077086	27.972992	15.804483	0.000000	8.594063	0.537955	-1.594760	12.705449	0.221752	27.472674	6.879098	0.000000	0.020036	-0.100893	-0.454203	0.037209	-0.134188	-0.482591	0.032917	-0.245312	-0.482591	0.022899	-0.245312	-0.397428	0.018605	-0.205742	-0.369040	0.011448	-0.156284	-0.340653	0.143114	-1.141325	-2.526144	0.000000	0.000000	19.473209	-5.747482	11.233342	9.131940	-11.549197	46.053731	63.631048	82.223816	13.152788	23.469195	14.277876	-6.823710	57.531043	48.110823	68.114850	10.602263	12.582880
1.406780	-3.917664	-3.346285	100.550567	0.073720	0.452931	0.847162	3.064620	0.272379	-13.157419	4.460632	0.077853	28.032258	15.801635	0.000000	8.504908	0.581420	-1.637639	12.622930	0.220312	27.387463	6.632282	0.000000	0.019452	-0.099939	-0.452879	0.036124	-0.132918	-0.481184	0.031957	-0.242991	-0.481184	0.022232	-0.242991	-0.396269	0.018063	-0.203795	-0.367964	0.011115	-0.154805	-0.339659	0.138943	-1.130525	-2.518776	0.000000	0.000000	19.236405	-5.491396	11.661049	9.345237	-11.459497	46.195792	63.467123	82.110981	13.278722	23.157651	14.139061	-7.311645	57.810856	48.638898	64.898366	9.758832	11.579955
1.423729	-3.975538	-3.321587	100.242067	0.073978	0.453045	0.846918	3.094669	0.208587	-12.875055	4.537488	0.079194	28.083138	15.811928	0.000000	8.388559	0.634687	-1.671205	12.534654	0.218771	27.283344	6.300885	0.000000	0.020299	-0.099307	-0.451877	0.037698	-0.132079	-0.480119	0.033350	-0.241456	-0.480119	0.023200	-0.241456	-0.395392	0.018850	-0.202508	-0.367150	0.011599	-0.153827	-0.338908	0.144995	-1.123386	-2.513205	0.000000	0.000000	18.968589	-5.208095	12.113481	9.563121	-11.399847	46.350732	63.364276	81.869932	13.430622	22.742024	14.036843	-7.862299	58.249523	49.253474	61.551548	9.073363	10.535839
1.440678	-4.041772	-3.295642	99.894350	0.074248	0.453156	0.846582	3.133492	0.130792	-12.605209	4.655407	0.081252	28.127603	15.841312	0.000000	8.247972	0.697843	-1.735663	12.437146	0.217069	27.181822	5.928664	0.000000	0.022487	-0.099218	-0.450718	0.041760	-0.131960	-0.478887	0.036943	-0.241238	-0.478887	0.025700	-0.241238	-0.394378	0.020881	-0.202325	-0.366208	0.012849	-0.153689	-0.338038	0.160619	-1.122373	-2.506756	0.000000	0.000000	18.688649	-4.893475	12.612672	9.793734	-11.374820	46.544128	63.319795	81.501968	13.615142	22.210753	13.938228	-8.451740	58.722748	49.929282	58.304832	8.684406	9.468536
1.457627	-4.114784	-3.269932	99.506138	0.074539	0.453263	0.846180	3.187562	0.041567	-12.325145	4.818626	0.084101	28.164776	15.860788	0.000000	8.086174	0.771219	-1.810075	12.320788	0.215038	27.090976	5.490366	0.000000	0.025989	-0.099311	-0.449554	0.048264	-0.132083	-0.477651	0.042697	-0.241464	-0.477651	0.029703	-0.241464	-0.393360	0.024133	-0.202514	-0.365263	0.014850	-0.153832	-0.337166	0.185637	-1.123422	-2.500286	0.000000	0.000000	18.408336	-4.559065	13.177469	10.033922	-11.378614	46.779288	63.322105	81.121870	13.853971	21.572621	13.826562	-9.063943	59.204307	50.651352	55.271135	8.549350	8.361586
1.474576	-4.193401	-3.245318	99.093221	0.074823	0.453361	0.845747	3.258418	-0.059767	-12.074708	5.026251	0.087725	28.197697	15.908126	0.000000	7.911365	0.857898	-1.875381	12.185137	0.212671	27.011283	4.985667	0.000000	0.030512	-0.099265	-0.447203	0.056663	-0.132023	-0.475153	0.050128	-0.241354	-0.475153	0.034872	-0.241354	-0.391302	0.028333	-0.202422	-0.363352	0.017434	-0.153762	-0.335402	0.217942	-1.122909	-2.487208	0.000000	0.000000	18.136125	-4.237761	13.786969	10.254228	-11.400931	46.988670	63.366666	80.982127	14.251926	20.807900	13.733130	-9.702685	59.855278	51.423555	52.269972	8.364092	7.109884
1.491525	-4.280268	-3.224283	98.667141	0.075065	0.453459	0.845328	3.352517	-0.179994	-11.845403	5.282592	0.092199	28.227269	15.971405	0.000000	7.729879	0.967700	-1.875695	12.026216	0.209897	26.928959	4.372233	0.000000	0.036082	-0.099381	-0.444003	0.067007	-0.132177	-0.471753	0.059279	-0.241635	-0.471753	0.041238	-0.241635	-0.388502	0.033505	-0.202657	-0.360752	0.020617	-0.153941	-0.333002	0.257728	-1.124216	-2.469409	0.000000	0.000000	17.882263	-3.938986	14.422974	10.473145	-11.458216	47.250328	63.456203	81.083978	14.681345	19.952546	13.648727	-10.325240	60.584743	52.165818	49.505003	8.293890	5.791047
1.508475	-4.366317	-3.203894	98.225523	0.075292	0.453547	0.844941	3.469841	-0.305491	-11.624402	5.586677	0.097506	28.254788	16.035666	0.000000	7.548507	1.075223	-1.938755	11.860881	0.207011	26.872894	3.827925	0.000000	0.041660	-0.098570	-0.441024	0.077366	-0.131099	-0.468589	0.068443	-0.239664	-0.468589	0.047613	-0.239664	-0.385896	0.038685	-0.201005	-0.358332	0.023804	-0.152686	-0.330768	0.297571	-1.115048	-2.452846	0.000000	0.000000	17.674923	-3.696462	15.069069	10.714780	-11.533741	47.586988	63.555744	81.404763	15.239967	19.059366	13.562838	-10.919450	61.396668	52.884926	47.122018	8.119517	4.213055
1.525424	-4.455490	-3.182396	97.734224	0.075553	0.453618	0.844584	3.599308	-0.434199	-11.365000	5.907098	0.103098	28.277509	16.115173	0.000000	7.361723	1.182159	-2.081569	11.690582	0.204039	26.829057	3.327566	0.000000	0.046582	-0.097222	-0.432468	0.086507	-0.129305	-0.459498	0.076529	-0.236386	-0.459498	0.053238	-0.236386	-0.378410	0.043256	-0.198255	-0.351381	0.026617	-0.150597	-0.324351	0.332729	-1.099795	-2.405259	0.000000	0.000000	17.534227	-3.521248	15.717356	11.020797	-11.643059	48.111457	63.660233	81.779413	15.766400	18.163871	13.489209	-11.481230	62.331255	53.565482	45.068026	7.763461	2.406268
1.542373	-4.538969	-3.162563	97.247982	0.075783	0.453675	0.844284	3.742423	-0.560639	-11.141642	6.245735	0.109009	28.308386	16.233984	0.000000	7.185526	1.280263	-2.274816	11.530772	0.201250	26.795333	2.915604	0.000000	0.051255	-0.094774	-0.426167	0.095186	-0.126049	-0.452803	0.084207	-0.230433	-0.452803	0.058580	-0.230433	-0.372896	0.047596	-0.193262	-0.346261	0.029287	-0.146804	-0.319625	0.366111	-1.072098	-2.370214	0.000000	0.000000	17.455574	-3.412252	16.343248	11.364314	-11.773782	48.751545	63.758130	82.152855	16.273088	17.315644	13.421836	-11.979648	63.297185	54.181239	43.424221	7.283284	0.520695
1.559322	-4.618076	-3.146692	96.775253	0.075985	0.453714	0.844041	3.897790	-0.685125	-10.948528	6.592562	0.115062	28.358883	16.378818	0.000000	7.021632	1.373458	-2.484350	11.377754	0.198579	26.758575	2.555321	0.000000	0.055901	-0.091849	-0.421313	0.103814	-0.122159	-0.447645	0.091840	-0.223322	-0.447645	0.063890	-0.223322	-0.368649	0.051910	-0.187298	-0.342317	0.031942	-0.142274	-0.315985	0.399297	-1.039014	-2.343217	0.000000	0.000000	17.435923	-3.353110	16.923220	11.713107	-11.916487	49.443889	63.855075	82.588500	16.686940	16.504795	13.350989	-12.396493	64.196535	54.722167	42.182791	6.727394	-1.295789
1.576271	-4.688388	-3.131501	96.352922	0.076124	0.453743	0.843871	4.052990	-0.802719	-10.816884	6.929949	0.120950	28.435973	16.553742	0.000000	6.877333	1.461394	-2.647200	11.240225	0.196179	26.707389	2.210154	0.000000	0.059893	-0.088687	-0.415335	0.111228	-0.117954	-0.441294	0.098399	-0.215634	-0.441294	0.068452	-0.215634	-0.363418	0.055617	-0.180851	-0.337460	0.034223	-0.137376	-0.311501	0.427812	-1.003246	-2.309970	0.000000	0.000000	17.473248	-3.361695	17.367062	11.991134	-12.054064	50.026820	63.969442	83.229669	17.007472	15.758189	13.330996	-12.717123	65.064146	55.183148	41.446688	6.109286	-2.889223
